<svg xmlns="http://www.w3.org/2000/svg" xmlns:xlink="http://www.w3.org/1999/xlink" width="101.297" height="59.115" viewBox="0 0 101.297 59.115"><defs><style>.a{fill:none;}.b{clip-path:url(#a);}.c{fill:#bc9763;}.d{fill:#00427b;}</style><clipPath id="a"><rect class="a" width="101.297" height="59.115"/></clipPath></defs><g class="b"><path class="c" d="M391.113,12.547c-.639,1.3-.367,2.814-1.7,3.855-.213.166-.035,1.159.757.568,1.254-.946,1.656-2.2,3.429-2.85,1.455-.544,3.914,0,4.777-.674a3.982,3.982,0,0,0,.5-.544.39.39,0,0,1,.721.284,3.786,3.786,0,0,1-2.117,2.188c-2.034.958-2.886.591-4.08,2.992-.414.828-1.183,1.076-1.9,1.561a.3.3,0,0,0,.118.568c1.194.13,1.939-.792,2.885-1.171,1.939-.922,3.891.2,5.688.627a1.9,1.9,0,0,0,1.159-.2c1.242-.568,1.632.095.438.922-1.135.792-2.578.792-4.163.78a4.976,4.976,0,0,0-3.358,1.762c-.544.5-1.514.39-1.987.615-.142.059-.213.355-.012.355h11.92l1.4-1.348-1.656-1.064,1.313-1.443-1.75-.887,1.159-1.573-1.833-.71,1.005-1.679-1.892-.52.828-1.774-2.01-.319.568-1.833-1.963-.118.461-1.892-1.963.083.26-1.928-1.975.237.024-1.975-1.928.461-.189-2-1.845.674-.331-1.916-1.809.84-.579-1.892-1.715,1.017L386.986.8,385.389,2,384.431.272,382.965,1.62,381.83,0l-1.313,1.5L379.228.012l-1.159,1.632L376.627.3l-.993,1.715L374.061.816l-.792,1.833-1.691-1.017L370.986,3.5,369.2,2.637l-.414,1.928-1.892-.674-.177,2-1.928-.426.024,1.928-1.963-.307.189,1.963-2.022-.059.438,1.892-1.963.166.627,1.857-1.987.378.851,1.738-1.892.532,1.029,1.644-1.833.721,1.183,1.537-1.738.887,1.324,1.443L355.4,22.87l1.466,1.289H368.55c.355-.118.509-.367.142-.591a2.15,2.15,0,0,0-1.525-.189c-4.387,1.277-5.1-2.377-7.214-2.791-.5-.213-1.135.3-1.419-.213a.415.415,0,0,1,.236-.473c1.466-.816,3.276-.154,4.588.508a4.2,4.2,0,0,0,3.193,0,2.833,2.833,0,0,1,2.672-.035c.319.095.911-.225.284-.851-1.289-.733-2.211-.2-3.69-1.147a8.273,8.273,0,0,1-2.578-3.453,1.559,1.559,0,0,0-.958-.828c-1.135-.2-1.4-.757-.769-.946,1.8-.284,3.193.9,4.293,1.987,1.194,1.183,2.4.745,3.831.97.828.13,1.325.851,2.022.9.319.024.449-.65-.118-1.041-1.147-.792-2.483-1.23-3.2-2.625-.686-1.088-.52-2.188-.733-3.193a2.577,2.577,0,0,0-.639-1.336A6.289,6.289,0,0,0,366.3,8.3c-.367-.26-.177-.733.414-.639,1.667.319,2.519,2.022,3.24,3.37.887,1.868,3.465,1.644,3.962,2.732.177.39.367.65.6.71,1.029.272.532-1.041-.13-1.762a13.15,13.15,0,0,1-1.135-1.4c-1.336-1.987.544-4.056-.106-6.09-.13-.438-.887-.733-.319-1.159.331-.13.568.189.828.367,1.407,1.064,1.265,3,1.727,4.576.367,1.372,1.821,1.667,2.5,2.862.307.426.13,1.348.851,1.313.166-.012.26-.225.3-.378.13-1.466-1.159-2.519-.8-4.163.095-1.585,1.478-2.625,1.892-4.08.307-.851-.189-1.324-.142-1.667a.317.317,0,0,1,.449-.237c1.75,1.313.7,3.666.556,5.546-.095,1.242,1.112,2.129,1.36,3.323.13.591-.343,1.656.414,1.679.378.024.52-.438.544-.733.083-1.253-.095-2.779.591-3.855.781-1.727,2.791-1.88,3.441-3.772a1.828,1.828,0,0,0,.095-.556c0-.863.568-.745.792.13.532,1.774-.922,3.181-1.585,4.647-.5,1.029-.036,2.1.059,3.146.106,1.135-.733,1.632-.532,2.129a.375.375,0,0,0,.532.177c1.183-.769,1.147-2.46,1.88-3.394,1.573-1.975,3.808-1.3,5.1-2.945.284-.26.118-.887.662-.887.154.071.331.2.3.414-.036,2.566-2.566,2.921-3.512,4.837" transform="translate(-313.372)"/><path class="c" d="M0,417.7H43.979v.769H0Zm57.543.78h43.624v-.769H57.543Z" transform="translate(0 -368.305)"/><path class="d" d="M2.9,186.51a5.076,5.076,0,0,0,4.943,4.127c1.963,0,4.044-1.147,4.044-3.453,0-4.222-9.4-5.511-9.4-10.631,0-2.436,2.223-4.245,5.215-4.245,2.46,0,2.956.733,3.985.733a.566.566,0,0,0,.532-.3H12.7l.5,3.725h-.5a5.174,5.174,0,0,0-4.718-3.453c-1.928,0-3.276,1.112-3.276,2.755,0,4.163,9.4,5.274,9.4,10.655,0,2.874-2.542,5-5.972,5a23.993,23.993,0,0,1-4.068-.792.714.714,0,0,0-.591.319h-.5L2.36,186.5H2.9Zm20.553-3.749H19.022L21.2,176.79Zm.438,1.135,1.715,4.659a2.782,2.782,0,0,1,.284,1.052c0,.721-.532.875-2,.875h-.662v.485H30.28v-.485a2.015,2.015,0,0,1-2.33-1.62L22.593,174.65H20.37l.225.568-4.659,12.724c-.816,2.235-1.1,2.507-2.767,2.542v.485h5.913v-.485h-.414c-1.407,0-2.081-.26-2.081-.946a7.279,7.279,0,0,1,.508-1.608l1.49-4.021h5.31ZM45.9,191.146v-14.3c0-.993.414-1.324,2.33-1.324v-.485h-6v.485c2.046.047,2.507.331,2.507,1.892V187.61L32.681,175.028H28.66v.485a3.713,3.713,0,0,1,2.152.639v12.618c0,1.171-.508,1.715-2.1,1.715H28.6v.485h5.948v-.485c-2.176,0-2.59-.39-2.59-2.235V177.263l13.268,13.883Zm12.523-16.615c0-1.549.414-2.081,2.282-2.14v-.556H53.3v.556h.319c2.1,0,2.365.591,2.365,3.157v15.633c0,3.252-.993,4.3-2.4,4.3-1.23,0-2.022-1.372-3.015-1.372a1.138,1.138,0,0,0-1.052,1.171c0,.911,1.23,1.585,2.838,1.585,3.654,0,6.066-3.95,6.066-9.839Zm10.264.757c4.222,0,7.249,3.358,7.249,8.124,0,3.642-2,7.32-6.173,7.32-4.127,0-7.379-3.382-7.379-8.171,0-3.075,1.786-7.273,6.3-7.273m.532,16.083a8.819,8.819,0,0,0,9.117-8.81c0-4.612-4.151-7.911-9-7.911-5.452,0-9.378,3.607-9.378,8.715.012,4.777,4.245,8.006,9.259,8.006m9.555-4.3.532,3.891h.438a.624.624,0,0,1,.508-.284,21.031,21.031,0,0,0,3.559.686c3,0,5.227-1.868,5.227-4.375,0-4.718-8.231-5.688-8.231-9.33,0-1.431,1.183-2.412,2.874-2.412a4.53,4.53,0,0,1,4.127,3.027h.438l-.438-3.252H87.4a.506.506,0,0,1-.461.26c-.9,0-1.336-.639-3.489-.639-2.613,0-4.553,1.585-4.553,3.713,0,4.482,8.219,5.605,8.219,9.295,0,2.022-1.821,3.027-3.536,3.027a4.429,4.429,0,0,1-4.328-3.607Zm21.782-6.729h-.485c-.13,1.49-.568,1.916-1.49,1.916H94v-6.3h5.4c.922,0,1.561.461,1.892,2.637h.461l-.2-3.559h-12.3v.485h.568c1.715,0,2.046.615,2.046,2.046v10.808c0,1.537-.355,2.1-2.412,2.1h-.721v.485h13.6l.414-3.82h-.461c-.639,2.211-1.183,2.9-2.968,2.9h-3.95c-.946,0-1.384-.225-1.384-1.407v-5.452h4.328c1.052,0,1.537.2,1.738,2.022h.485v-4.86ZM6.688,201.1l-.071-1.076H6.5c-.012.024-.047.047-.13.047a5.985,5.985,0,0,0-1.585-.3A2.49,2.49,0,0,0,2.1,202.25,2.4,2.4,0,0,0,4.713,204.6c.887,0,1.218-.26,1.691-.2a5.535,5.535,0,0,0,.485-1.076H6.747a1.977,1.977,0,0,1-1.821,1.088,2.2,2.2,0,0,1-2.1-2.318,1.978,1.978,0,0,1,2.034-2.14,1.741,1.741,0,0,1,1.7,1.135h.13Zm3.264,1.017H8.663l.639-1.727Zm.118.319.5,1.348a.724.724,0,0,1,.083.3c0,.2-.154.248-.579.248H9.881v.142h2.058v-.142a.591.591,0,0,1-.686-.461l-1.561-4.1h-.65l.071.166-1.36,3.678c-.237.65-.319.721-.8.733v.142H8.675v-.142H8.557c-.414,0-.6-.071-.6-.272a1.753,1.753,0,0,1,.154-.461l.438-1.159H10.07Zm3.477-2.448a2.569,2.569,0,0,1,.52-.035c.993,0,1.23.568,1.23,1.147a1.248,1.248,0,0,1-1.336,1.289,1.812,1.812,0,0,1-.4-.059v-2.341Zm0,2.5a2.919,2.919,0,0,0,.639.059c1.112,0,1.809-.544,1.809-1.407,0-.568-.355-1.313-1.928-1.313-.2,0-.556.012-.934.024s-.733.035-.946.047v.142h.378c.26,0,.355.118.355.39v3.488c0,.343-.106.426-.5.426h-.106v.142h2.069v-.142h-.248c-.473,0-.6-.154-.6-.568v-1.289Zm4.6,1.857c-.52,0-.639-.154-.639-.579V200.63c0-.5.166-.6.639-.6v-.142H16.326v.142c.426.024.556.13.556.532V203.7c0,.5-.095.615-.556.639v.142h1.821Zm2.909-4.186h1.3c.3,0,.438.166.544.816h.13l-.118-1.194h-.142c-.012.083-.13.106-.237.106H18.939a.693.693,0,0,1-.154-.024.117.117,0,0,1-.083-.083h-.142l-.118,1.194h.13c.118-.65.248-.816.544-.816h1.3V203.8c0,.4-.13.544-.591.544h-.272v.142h2.353v-.142h-.272c-.461,0-.591-.142-.591-.544v-3.642ZM25.2,202.12H23.906l.639-1.727Zm.13.319.508,1.348a.973.973,0,0,1,.083.3c0,.2-.154.248-.579.248h-.189v.142h2.034v-.142a.591.591,0,0,1-.686-.461l-1.561-4.1h-.65l.071.166L23,203.61c-.237.65-.319.721-.8.733v.142h1.727v-.142H23.8c-.414,0-.6-.071-.6-.272a1.752,1.752,0,0,1,.154-.461l.438-1.159h1.537Zm5.877.97h-.13c-.473.639-.6.816-1.052.816h-1.1c-.213,0-.3-.071-.3-.272v-3.406c0-.461.13-.509.615-.509h.272v-.154H27.3v.142h.106c.473,0,.591.166.591.556v3.276c0,.378-.13.485-.473.485h-.248v.142h3.347Zm5.369-3.453a2.153,2.153,0,0,1,2.117,2.341,1.9,1.9,0,0,1-1.8,2.117,2.2,2.2,0,0,1-2.152-2.353,1.928,1.928,0,0,1,1.833-2.1m.154,4.647a2.569,2.569,0,0,0,2.673-2.542,2.456,2.456,0,0,0-2.625-2.282,2.535,2.535,0,0,0-2.744,2.507,2.468,2.468,0,0,0,2.7,2.318m6.338-3.193h-.13c-.024.319-.154.473-.438.473H41.018v-1.738h1.419c.461,0,.615.177.627.6h.13v-.863H39.835v.142c.52.012.568.225.568.7v2.9c0,.6-.083.7-.544.721v.142H41.68v-.142c-.568,0-.65-.154-.65-.568v-1.62h1.384c.355,0,.52.13.532.568h.13v-1.313Zm3.666,1.951.154,1.123h.13a.22.22,0,0,1,.154-.083,6.14,6.14,0,0,0,1.041.2,1.379,1.379,0,0,0,1.525-1.265c0-1.36-2.4-1.644-2.4-2.684,0-.414.343-.7.84-.7a1.325,1.325,0,0,1,1.206.875h.13l-.13-.934H49.26c-.047.059-.071.071-.13.071a5.265,5.265,0,0,0-1.017-.177,1.2,1.2,0,0,0-1.336,1.064c0,1.289,2.4,1.62,2.4,2.684a.94.94,0,0,1-1.029.875,1.289,1.289,0,0,1-1.265-1.041h-.154Zm5.369.982c-.52,0-.639-.154-.639-.579V200.63c0-.5.166-.6.639-.6v-.142H50.277v.142c.414.024.556.13.556.532V203.7c0,.5-.095.615-.556.639v.142H52.1Zm4.375-.934h-.13c-.473.639-.6.816-1.052.816h-1.1c-.213,0-.3-.071-.3-.272v-3.406c0-.461.13-.509.615-.509h.272v-.154H52.571v.142h.106c.473,0,.591.166.591.556v3.276c0,.378-.13.485-.473.485h-.248v.142h3.347Zm1.916.934c-.52,0-.639-.154-.639-.579V200.63c0-.5.166-.6.639-.6v-.142H56.568v.142c.426.024.556.13.556.532V203.7c0,.5-.095.615-.556.639v.142h1.821Zm4.624-3.24-.071-1.076h-.106c-.012.024-.059.047-.142.047a5.985,5.985,0,0,0-1.585-.3,2.49,2.49,0,0,0-2.684,2.471,2.4,2.4,0,0,0,2.613,2.353c.887,0,1.218-.26,1.691-.2a5.536,5.536,0,0,0,.485-1.076h-.142a1.966,1.966,0,0,1-1.821,1.088,2.2,2.2,0,0,1-2.1-2.318,1.978,1.978,0,0,1,2.034-2.14,1.741,1.741,0,0,1,1.7,1.135h.13Zm2.98-1.147A2.153,2.153,0,0,1,68.11,202.3a1.9,1.9,0,0,1-1.8,2.117,2.2,2.2,0,0,1-2.152-2.353,1.943,1.943,0,0,1,1.833-2.1m.166,4.647a2.559,2.559,0,0,0,2.661-2.542,2.456,2.456,0,0,0-2.625-2.282,2.525,2.525,0,0,0-2.732,2.507,2.468,2.468,0,0,0,2.7,2.318m7.722-.071v-4.127c0-.284.118-.378.686-.378v-.142h-1.75v.142c.6.012.733.095.733.544v2.945l-3.536-3.63H68.843v.142a1.125,1.125,0,0,1,.627.189v3.63c0,.343-.154.5-.615.5h-.024v.142h1.738v-.142c-.639,0-.757-.106-.757-.639v-3.169l3.879,4.009h.189Zm5.972.071,1.537-3.938c.177-.461.378-.639.769-.639v-.142H80.42v.142c.508,0,.7.083.7.307a1.46,1.46,0,0,1-.13.461L79.8,203.847l-1.348-3.311c-.142-.343.024-.5.71-.509v-.142H77.109v.142c.461,0,.544.106.733.579l1.62,4Zm4.127-2.483H82.69l.639-1.727Zm.13.319.5,1.348a.724.724,0,0,1,.083.3c0,.2-.154.248-.579.248h-.2v.142h2.058v-.142a.591.591,0,0,1-.686-.461l-1.561-4.1h-.65l.059.166-1.36,3.678c-.237.65-.319.721-.8.733v.142H82.69v-.142h-.118c-.414,0-.6-.071-.6-.272a1.752,1.752,0,0,1,.154-.461l.438-1.159h1.549Zm5.877.97h-.13c-.473.639-.6.816-1.052.816H87.7c-.213,0-.3-.071-.3-.272v-3.406c0-.461.13-.509.615-.509H88.3v-.154H86.084v.142h.106c.473,0,.591.166.591.556v3.276c0,.378-.13.485-.473.485h-.248v.142h3.347Zm3.855,0H93.7c-.473.639-.6.816-1.041.816h-1.1c-.213,0-.3-.071-.3-.272v-3.406c0-.461.13-.509.615-.509h.284v-.154H89.951v.142h.106c.473,0,.591.166.591.556v3.276c0,.378-.13.485-.473.485h-.248v.142h3.347Zm3.441-2h-.142c-.035.426-.166.556-.438.556H95.367v-1.809h1.585c.272,0,.461.13.556.757h.142l-.059-1.029H94v.142h.166c.5,0,.6.177.6.591v3.122c0,.438-.106.6-.7.6h-.213v.142h3.973l.118-1.1h-.13c-.189.639-.343.84-.863.84H95.769c-.272,0-.4-.071-.4-.4V202.25h1.265c.307,0,.449.059.508.579h.142Zm3.477.922-1.194-1.821c-.225-.343-.189-.485.4-.485v-.142H97.981v.142c.485.012.662.118,1.029.686l1.336,2.058v1.041c0,.367-.13.532-.591.532h-.142v.142h2.058v-.142h-.095c-.461,0-.6-.154-.6-.544v-1.112l1.242-2.081a1.041,1.041,0,0,1,.934-.579v-.142h-1.691v.142c.473,0,.615.13.378.532Zm-86.87-36.02-.059-1.064h-.106c-.012.024-.047.047-.13.047a5.68,5.68,0,0,0-1.537-.3,2.455,2.455,0,0,0-2.625,2.448,2.364,2.364,0,0,0,2.554,2.33c.863,0,1.183-.26,1.656-.2a5.393,5.393,0,0,0,.473-1.064h-.142a1.927,1.927,0,0,1-1.786,1.076,2.166,2.166,0,0,1-2.058-2.294,1.942,1.942,0,0,1,1.987-2.117,1.711,1.711,0,0,1,1.667,1.123h.106Zm2.507,3.2c-.508,0-.615-.142-.615-.579v-3.1c0-.5.166-.591.615-.591v-.142H14.623v.142c.414.024.544.13.544.52v3.122c0,.485-.095.6-.544.627v.142H16.4Zm2.862-4.151h1.277c.3,0,.426.166.532.816h.13L21.08,165h-.142c-.012.083-.118.106-.225.106H17.189a.509.509,0,0,1-.142-.024.117.117,0,0,1-.083-.083h-.142l-.118,1.183h.13c.106-.639.237-.816.532-.816h1.277v3.619c0,.39-.13.532-.579.532h-.272v.142H20.1v-.142h-.272c-.449,0-.579-.142-.579-.532v-3.619Zm4.8,2.164-1.171-1.809c-.225-.331-.189-.473.39-.473v-.142H21.328v.142c.473.012.639.118,1.005.674l1.3,2.034v1.029c0,.355-.13.52-.579.52h-.13v.142h2.01v-.142H24.84c-.449,0-.579-.154-.579-.544v-1.1l1.218-2.058a1,1,0,0,1,.911-.579v-.142H24.734v.142c.473,0,.6.118.378.52Zm9.993-.272a2.517,2.517,0,0,1-2.6,2.519,2.431,2.431,0,0,1-2.637-2.294A2.489,2.489,0,0,1,31.486,165a2.4,2.4,0,0,1,2.566,2.259m-.7.248a2.118,2.118,0,0,0-2.069-2.318,1.91,1.91,0,0,0-1.8,2.081,2.169,2.169,0,0,0,2.1,2.33,1.877,1.877,0,0,0,1.762-2.093m4.115-.887h-.13c-.024.319-.154.473-.426.473H35.471v-1.715h1.4c.449,0,.6.177.6.6h.118v-.863H34.313v.142c.508.012.544.213.544.686v2.874c0,.591-.083.686-.532.721v.142H36.1v-.142c-.544,0-.639-.154-.639-.568v-1.6h1.36c.355,0,.508.13.52.556h.13Z" transform="translate(-1.852 -145.488)"/></g></svg>