<svg xmlns="http://www.w3.org/2000/svg" xmlns:xlink="http://www.w3.org/1999/xlink" width="134.896" height="55.435" viewBox="0 0 134.896 55.435"><defs><style>.a{fill:none;}.b{clip-path:url(#a);}.c{fill:#00a8e0;}</style><clipPath id="a"><rect class="a" width="134.896" height="55.435"/></clipPath></defs><g class="b"><path d="M541.488,142.512a.582.582,0,0,1-.609-.61V124.029h-6.072a.582.582,0,0,1-.61-.609v-2.465a.582.582,0,0,1,.61-.611h16.161a.582.582,0,0,1,.609.611v2.465a.581.581,0,0,1-.609.609H544.9V141.9a.583.583,0,0,1-.609.61h-2.8m-46.509-8.923-3.187-9.144-3.216,9.144Zm7.069,8.2a.508.508,0,0,1-.471.722H498.7a.778.778,0,0,1-.8-.583l-1.635-4.709H487.3l-1.638,4.709a.776.776,0,0,1-.8.583h-2.716a.518.518,0,0,1-.472-.722l7.512-20.891a.755.755,0,0,1,.8-.554H493.7a.787.787,0,0,1,.832.554l7.512,20.891m21.532-2.271a4.478,4.478,0,0,0,3.936-2.327l-4.49-4.822c-1.719.971-2.829,1.939-2.829,3.879a3.283,3.283,0,0,0,3.382,3.27m1.247-16.238a2.076,2.076,0,0,0-2.273,2.134c0,.942.5,1.773,1.635,2.993,1.968-1.137,2.8-1.829,2.8-3.048a1.986,1.986,0,0,0-2.162-2.079m12.281,18.455c.36.388.139.776-.306.776h-3.52a1.144,1.144,0,0,1-1.025-.472l-2.107-2.327a7.74,7.74,0,0,1-6.653,3.3c-4.047,0-7.236-2.438-7.236-6.622,0-3.215,1.72-4.934,4.326-6.374a6.818,6.818,0,0,1-1.857-4.377c0-3.437,2.411-5.792,6.042-5.792,3.714,0,5.988,2.19,5.988,5.431,0,2.771-2,4.321-4.1,5.486l3.105,3.354,1.746-3.049a.936.936,0,0,1,.914-.5h2.688c.444,0,.694.306.417.776l-3.105,5.319,4.686,5.072m-27.664.776a.583.583,0,0,0,.611-.61V124.029h6.07a.582.582,0,0,0,.61-.609v-2.465a.582.582,0,0,0-.61-.611H499.964a.582.582,0,0,0-.61.611v2.465a.582.582,0,0,0,.61.609h6.07V141.9a.583.583,0,0,0,.61.61Z" transform="translate(-416.682 -103.683)"/><path class="c" d="M10.725,49.61A27.723,27.723,0,0,0,46,48.564c.059-.052.03-.087-.028-.052-2.187,1.461-8.421,4.65-18.238,4.65-8.532,0-13.923-1.9-16.968-3.6-.058-.029-.08.015-.036.051m18.886,1.417c6.824,0,14.322-1.86,18.807-5.542a15.006,15.006,0,0,0,3.443-4.133,26.591,26.591,0,0,0,1.672-3.465c.021-.059-.015-.087-.059-.021C49.3,44,37.227,47.83,24.757,47.83c-8.814,0-18.3-2.819-22.011-8.2-.037-.05-.073-.028-.051.029C6.154,47.01,16.648,51.026,29.611,51.026m-7.455-12.2c-14.192,0-20.884-6.61-22.1-11.12C.043,27.645,0,27.659,0,27.717A27.488,27.488,0,0,0,.413,32.5a5.575,5.575,0,0,0,1.4,2.419c3.436,3.582,12,8.6,26.842,8.6,20.216,0,24.838-6.734,25.782-8.949a20.3,20.3,0,0,0,1.025-6.85c0-.582-.015-1.047-.037-1.5,0-.074-.043-.08-.058-.008C54.353,31.626,37.081,38.83,22.155,38.83m-19.482-23A27.475,27.475,0,0,0,.691,21.572a1.83,1.83,0,0,0,.144,1.344c1.7,3.609,10.3,9.383,30.374,9.383,12.244,0,21.755-3.008,23.3-8.5a6.5,6.5,0,0,0-.066-3.515,26.931,26.931,0,0,0-1.816-4.8c-.021-.043-.059-.037-.051.014.24,7.2-19.838,11.84-29.968,11.84-10.973,0-20.127-4.372-20.127-9.892a6.739,6.739,0,0,1,.247-1.613c.014-.05-.029-.059-.052-.015m43.367-8.84a1.121,1.121,0,0,1,.175.64c0,3.08-9.425,8.528-24.43,8.528C10.761,16.154,8.7,12.065,8.7,9.464A4.493,4.493,0,0,1,9.839,6.617c.043-.057.006-.08-.043-.037a27.785,27.785,0,0,0-3.9,4.054A3.532,3.532,0,0,0,5,12.319c0,5.39,13.515,9.3,26.152,9.3,13.465,0,19.474-4.4,19.474-8.259,0-1.381-.537-2.186-1.912-3.749a32.681,32.681,0,0,0-2.63-2.659c-.043-.036-.073-.007-.043.037M41.913,3.908a27.7,27.7,0,0,0-28.564.115c-1.251.77-1.955,1.387-1.955,2.18,0,2.338,5.464,4.852,15.157,4.852,9.593,0,17.033-2.753,17.033-5.4,0-.633-.553-1.075-1.672-1.743" transform="translate(0 0)"/></g></svg>