<svg xmlns="http://www.w3.org/2000/svg" xmlns:xlink="http://www.w3.org/1999/xlink" width="114" height="50.372" viewBox="0 0 114 50.372"><defs><style>.a{fill:none;}.b{clip-path:url(#a);}.c{fill:#7bc143;}.d{fill:#06a;}</style><clipPath id="a"><rect class="a" width="114" height="50.372"/></clipPath></defs><g transform="translate(0 0)"><g class="b" transform="translate(0 0)"><path class="c" d="M0,79.871a3.54,3.54,0,0,1,3.563-3.594,3.933,3.933,0,0,1,2.665.928l-.779.928A2.719,2.719,0,0,0,3.5,77.415a2.367,2.367,0,0,0-2.276,2.426A2.288,2.288,0,0,0,3.594,82.3a2.832,2.832,0,0,0,1.647-.509V80.5H3.5V79.422H6.438V82.3a4.4,4.4,0,0,1-2.875,1.078A3.4,3.4,0,0,1,0,79.871m9.073-3.5h5.15v1.078H10.3v1.8h3.443V80.32H10.3v1.857h3.953v1.078H9.043Zm7.606,0h1.138l3.713,4.791V76.368h1.2v6.887H21.71l-3.8-4.941v4.941h-1.2V76.368Zm8.8,0h5.15v1.078H26.711v1.8h3.443V80.32H26.711v1.857h3.953v1.078H25.453Zm7.4,0h3.084a3.038,3.038,0,0,1,2.007.658,2.189,2.189,0,0,1-1.078,3.594l1.856,2.635H37.311L35.6,80.83h-1.5v2.425H32.88Zm2.995,3.443c.868,0,1.437-.449,1.437-1.138,0-.719-.509-1.138-1.437-1.138H34.137v2.306h1.737Zm7.217-3.5h1.138l3.025,6.947H45.965l-.719-1.647H41.953l-.719,1.647H40.007Zm1.737,4.222-1.2-2.785-1.2,2.785Zm4.432-4.162h1.228v5.809H54.14v1.138H49.289V76.368Zm9.4,5.9.719-.868a3.193,3.193,0,0,0,2.156.868c.779,0,1.228-.36,1.228-.868s-.269-.779-1.557-1.078c-1.5-.359-2.306-.779-2.306-2.066a2.11,2.11,0,0,1,2.366-2.006,3.828,3.828,0,0,1,2.515.868l-.659.928a3.241,3.241,0,0,0-1.916-.719c-.719,0-1.138.36-1.138.809,0,.509.3.778,1.647,1.078,1.437.36,2.216.869,2.216,2.006,0,1.288-1.018,2.067-2.455,2.067a3.913,3.913,0,0,1-2.815-1.018m7.576-5.9h5.15v1.078H67.466v1.8H70.91V80.32H67.466v1.857h3.953v1.078h-5.18Zm7.815,0h3.085a3.036,3.036,0,0,1,2.006.658,2.19,2.19,0,0,1-1.078,3.594l1.856,2.635H78.486L76.779,80.83h-1.5v2.425H74.053Zm2.995,3.443c.868,0,1.437-.449,1.437-1.138,0-.719-.509-1.138-1.437-1.138H75.311v2.306h1.737Zm4.162-3.443h1.348l2.066,5.3,2.066-5.3h1.348l-2.875,6.947H84.085Zm8.834,0h1.228v6.888H90.044Zm3.354,3.5a3.5,3.5,0,0,1,3.563-3.594,3.633,3.633,0,0,1,2.725,1.078l-.778.868a2.8,2.8,0,0,0-1.947-.868,2.293,2.293,0,0,0-2.275,2.425,2.356,2.356,0,0,0,2.275,2.456,2.94,2.94,0,0,0,2.007-.868l.779.778A3.487,3.487,0,0,1,96.9,83.374a3.433,3.433,0,0,1-3.5-3.5m8.384-3.5h5.15v1.078h-3.923v1.8h3.443V80.32h-3.443v1.857h3.953v1.078h-5.211c.03,0,.03-6.887.03-6.887m6.947,5.9.719-.868a3.194,3.194,0,0,0,2.156.868c.779,0,1.228-.36,1.228-.868s-.269-.779-1.557-1.078c-1.5-.359-2.306-.779-2.306-2.066a2.11,2.11,0,0,1,2.366-2.006,3.827,3.827,0,0,1,2.515.868l-.658.928a3.242,3.242,0,0,0-1.916-.719c-.719,0-1.138.36-1.138.809,0,.509.3.778,1.647,1.078,1.437.36,2.216.869,2.216,2.006,0,1.288-1.018,2.067-2.455,2.067a4.006,4.006,0,0,1-2.815-1.018" transform="translate(0 -33.003)"/><path class="d" d="M74.525,35.278H47.642A8.479,8.479,0,0,1,39.361,27V8.281A8.6,8.6,0,0,1,47.642,0H74.525V8.678H50.137a2.111,2.111,0,0,0-2.155,2.155V24.5a2.111,2.111,0,0,0,2.155,2.155h15.71V22.006H52.576V13.328H74.525Zm-47.642,0H0V13.272H8.678V26.543h15.71a2.111,2.111,0,0,0,2.155-2.155V10.719a2.111,2.111,0,0,0-2.155-2.155H0V0H27a8.5,8.5,0,0,1,8.167,8.281V27.167a8.53,8.53,0,0,1-8.281,8.111M87.23,0h25.522V8.678H89.669c-1.928,0-2.042,1.872-2.155,2.042v.51a2.111,2.111,0,0,0,2.155,2.155h16.051A8.6,8.6,0,0,1,114,21.666v5.388a8.44,8.44,0,0,1-8.281,8.281H80.2V26.657h23.084a1.97,1.97,0,0,0,2.042-2.042V24.1a2.111,2.111,0,0,0-2.155-2.155H87.173a8.479,8.479,0,0,1-8.281-8.281V8.281A8.61,8.61,0,0,1,87.23,0" transform="translate(0 0)"/></g></g></svg>