<svg xmlns="http://www.w3.org/2000/svg" xmlns:xlink="http://www.w3.org/1999/xlink" width="130.268" height="43.504" viewBox="0 0 130.268 43.504"><defs><style>.a{fill:none;}.b{clip-path:url(#a);}.c{fill:#00a24e;}.d{fill:#004496;}.e{fill:#49bcbf;}</style><clipPath id="a"><rect class="a" width="130.268" height="43.504"/></clipPath></defs><g class="b"><path class="c" d="M499.52,134.1a13.419,13.419,0,0,1-1.737,7.1,24.5,24.5,0,0,0-5.384.2c-7.794,1.15-17.217,5.406-20.734-.521,2.649,1.8,6.752,1.715,15.828-2.562A52.911,52.911,0,0,1,499.52,134.1" transform="translate(-369.259 -104.985)"/><path class="d" d="M2.5,59.256,13.289,35.591A.8.8,0,0,1,13.9,35.2h.347a.764.764,0,0,1,.586.391L25.556,59.256a.618.618,0,0,1-.608.912H22.733a.823.823,0,0,1-.8-.521l-2.171-4.82H8.273c-.695,1.606-1.433,3.191-2.149,4.82a.9.9,0,0,1-.8.521H3.106a.618.618,0,0,1-.608-.912m15.914-7.468-4.321-9.64h-.174l-4.3,9.64Z" transform="translate(-1.898 -27.558)"/><path class="d" d="M121.621,35.2a12.152,12.152,0,0,1,8.511,3.278.639.639,0,0,1,.043.977l-1.542,1.585c-.239.326-.564.326-.89,0a9.569,9.569,0,0,0-6.079-2.345,9.123,9.123,0,0,0,.043,18.238,9.353,9.353,0,0,0,6.036-2.323.66.66,0,0,1,.847-.043l1.628,1.585a.664.664,0,0,1-.043.955,12.029,12.029,0,0,1-8.533,3.409,12.658,12.658,0,1,1-.022-25.315" transform="translate(-85.306 -27.558)"/><path class="d" d="M217.644,36.394a.613.613,0,0,1,.63-.847h2.345a.7.7,0,0,1,.63.5L225.5,52.178h.13l5.732-16.587a.634.634,0,0,1,.608-.391h.63a.657.657,0,0,1,.608.391l5.8,16.587h.13l4.19-16.132a.729.729,0,0,1,.63-.5H246.3a.606.606,0,0,1,.63.847l-6.644,23.622a.671.671,0,0,1-.63.5h-.564a.707.707,0,0,1-.608-.391L232.3,42.647h-.174l-6.079,17.478a.657.657,0,0,1-.608.391h-.521a.671.671,0,0,1-.63-.5Z" transform="translate(-170.364 -27.558)"/><path class="d" d="M342.141,59.256l10.791-23.665a.8.8,0,0,1,.608-.391h.347a.837.837,0,0,1,.608.391l10.725,23.665a.614.614,0,0,1-.586.912H362.42a.823.823,0,0,1-.8-.521l-2.171-4.82H347.96c-.695,1.606-1.433,3.191-2.149,4.82a.9.9,0,0,1-.8.521h-2.215a.639.639,0,0,1-.651-.912m15.936-7.468-4.321-9.64h-.174l-4.3,9.64Z" transform="translate(-267.809 -27.558)"/><path class="d" d="M.014,175.625l1.845-4.06a.119.119,0,0,1,.109-.065h.065a.148.148,0,0,1,.109.065l1.845,4.06c.043.087-.022.152-.109.152H3.488a.147.147,0,0,1-.13-.087l-.369-.825H1.013c-.13.282-.239.543-.369.825a.147.147,0,0,1-.13.087H.123a.1.1,0,0,1-.109-.152m2.736-1.259-.738-1.65H1.99l-.738,1.65Z" transform="translate(0 -134.265)"/><path class="d" d="M19.435,182.05l.13-.239a.1.1,0,0,1,.152-.021,1.258,1.258,0,0,0,.564.152c.174,0,.3-.065.3-.2,0-.174-.13-.239-.456-.391-.369-.174-.695-.391-.695-.782,0-.3.239-.673.825-.673a1.289,1.289,0,0,1,.716.2c.043.043.087.109.043.174l-.109.2a.134.134,0,0,1-.152.043,1.322,1.322,0,0,0-.5-.13c-.2,0-.261.087-.261.174,0,.152.152.217.391.326.434.2.8.369.8.825,0,.369-.347.695-.89.695a1.4,1.4,0,0,1-.8-.239c-.065,0-.087-.043-.065-.109" transform="translate(-15.209 -140.842)"/><path class="d" d="M29.333,182.05l.13-.239a.1.1,0,0,1,.152-.021,1.258,1.258,0,0,0,.564.152c.174,0,.3-.065.3-.2,0-.174-.13-.239-.456-.391-.369-.174-.695-.391-.695-.782,0-.3.239-.673.825-.673a1.289,1.289,0,0,1,.716.2c.043.043.087.109.043.174l-.109.2a.134.134,0,0,1-.152.043,1.322,1.322,0,0,0-.5-.13c-.2,0-.282.087-.282.174,0,.152.152.217.391.326.434.2.8.369.8.825,0,.369-.347.695-.89.695a1.4,1.4,0,0,1-.8-.239c-.043,0-.065-.043-.043-.109" transform="translate(-22.958 -140.842)"/><path class="d" d="M40.38,179.9a1.271,1.271,0,1,1-1.216,1.259A1.252,1.252,0,0,1,40.38,179.9m0,2.019a.727.727,0,0,0,.673-.76.676.676,0,1,0-1.346,0,.727.727,0,0,0,.673.76" transform="translate(-30.661 -140.841)"/><path class="d" d="M53.772,179.9a1.041,1.041,0,0,1,.868.434.134.134,0,0,1-.022.174l-.2.174c-.065.065-.109.022-.152-.022a.64.64,0,0,0-.478-.239.738.738,0,1,0,.564,1.194.113.113,0,0,1,.174-.021l.174.13a.118.118,0,0,1,.043.174,1.077,1.077,0,0,1-.934.5,1.26,1.26,0,0,1-1.259-1.259,1.205,1.205,0,0,1,1.216-1.238" transform="translate(-41.143 -140.841)"/><path class="d" d="M64.864,172.747a.347.347,0,1,1,.347.347.343.343,0,0,1-.347-.347m.065,1.455a.1.1,0,0,1,.109-.109h.347a.116.116,0,0,1,.109.109v2.171a.1.1,0,0,1-.109.109h-.347a.116.116,0,0,1-.109-.109Z" transform="translate(-50.781 -134.97)"/><path class="d" d="M73.087,182.167a.1.1,0,0,1-.109.109H72.8c-.065,0-.087-.043-.109-.109l-.043-.174a1.067,1.067,0,0,1-.76.326,1.266,1.266,0,0,1,.022-2.519,1.05,1.05,0,0,1,.738.3l.065-.152a.144.144,0,0,1,.109-.087H73a.116.116,0,0,1,.109.109v2.193Zm-.586-1.455a.623.623,0,0,0-.564-.369.692.692,0,0,0-.673.738.676.676,0,0,0,.651.738.623.623,0,0,0,.564-.369v-.738Z" transform="translate(-55.4 -140.763)"/><path class="d" d="M84.433,177.959h-.261a.1.1,0,0,1-.109-.109v-.261a.1.1,0,0,1,.109-.109h.261v-.673a.1.1,0,0,1,.109-.109h.347a.1.1,0,0,1,.109.109v.673h.608a.1.1,0,0,1,.109.109v.261a.1.1,0,0,1-.109.109H85v1.194c0,.2.087.239.2.239a.828.828,0,0,0,.369-.109c.087-.044.109,0,.13.043l.109.261a.134.134,0,0,1-.043.152,1.744,1.744,0,0,1-.695.174c-.478,0-.608-.282-.608-.716v-1.238Z" transform="translate(-65.813 -138.336)"/><path class="d" d="M94.263,172.747a.347.347,0,1,1,.347.347.343.343,0,0,1-.347-.347m.065,1.455a.116.116,0,0,1,.109-.109h.347a.116.116,0,0,1,.109.109v2.171a.1.1,0,0,1-.109.109h-.347a.116.116,0,0,1-.109-.109Z" transform="translate(-73.797 -134.97)"/><path class="d" d="M101.28,179.9a1.271,1.271,0,1,1-1.216,1.259,1.252,1.252,0,0,1,1.216-1.259m0,2.019a.753.753,0,1,0-.673-.76.7.7,0,0,0,.673.76" transform="translate(-78.339 -140.841)"/><path class="d" d="M113.964,180.074a.1.1,0,0,1,.109-.109h.174c.043,0,.087.022.087.065l.065.2a1.3,1.3,0,0,1,.847-.326c.738,0,1,.521,1,1.151v1.216a.1.1,0,0,1-.109.109h-.347a.116.116,0,0,1-.109-.109v-1.238c0-.391-.2-.608-.5-.608a.845.845,0,0,0-.673.369v1.476c0,.087-.043.109-.13.109h-.3a.116.116,0,0,1-.109-.109Z" transform="translate(-89.221 -140.841)"/><path class="d" d="M134.58,179.9a1.271,1.271,0,1,1-1.216,1.259,1.252,1.252,0,0,1,1.216-1.259m0,2.019a.727.727,0,0,0,.673-.76.676.676,0,1,0-1.346,0,.727.727,0,0,0,.673.76" transform="translate(-104.409 -140.841)"/><path class="d" d="M146.755,174.045h-.282a.1.1,0,0,1-.109-.109v-.261a.1.1,0,0,1,.109-.109h.282v-.738a1.012,1.012,0,0,1,1.02-1.129,1.17,1.17,0,0,1,.695.239.1.1,0,0,1,.022.13l-.152.282a.1.1,0,0,1-.152.022,1.055,1.055,0,0,0-.391-.152c-.261,0-.456.2-.456.608v.738h.651a.1.1,0,0,1,.109.109v.261a.1.1,0,0,1-.109.109h-.651v1.8a.116.116,0,0,1-.109.109h-.347a.116.116,0,0,1-.109-.109v-1.8Z" transform="translate(-114.586 -134.422)"/><path class="d" d="M164.508,171.6a2.032,2.032,0,0,1,1.455.564.132.132,0,0,1,0,.173l-.261.282c-.043.043-.087.043-.152,0a1.7,1.7,0,0,0-1.042-.412,1.564,1.564,0,0,0,0,3.126,1.7,1.7,0,0,0,1.042-.391c.065-.043.109-.043.152,0l.282.282c.043.043.043.13,0,.152a2.109,2.109,0,0,1-1.455.586,2.164,2.164,0,0,1-2.171-2.171,2.111,2.111,0,0,1,2.149-2.193" transform="translate(-127.108 -134.343)"/><path class="d" d="M183.209,182.167a.116.116,0,0,1-.109.109h-.2c-.043,0-.087-.043-.109-.109l-.043-.174a1.067,1.067,0,0,1-.76.326,1.266,1.266,0,0,1,.022-2.519,1,1,0,0,1,.738.3l.065-.152a.144.144,0,0,1,.109-.087h.174a.116.116,0,0,1,.109.109Zm-.586-1.455a.623.623,0,0,0-.564-.369.692.692,0,0,0-.673.738.676.676,0,0,0,.651.738.623.623,0,0,0,.564-.369v-.738Z" transform="translate(-141.596 -140.763)"/><path class="d" d="M195.264,172.009a.1.1,0,0,1,.109-.109h.347a.116.116,0,0,1,.109.109V176a.1.1,0,0,1-.109.109h-.347a.116.116,0,0,1-.109-.109Z" transform="translate(-152.869 -134.578)"/><path class="d" d="M201.164,172.747a.347.347,0,1,1,.347.347.343.343,0,0,1-.347-.347m.065,1.455a.1.1,0,0,1,.109-.109h.347a.116.116,0,0,1,.109.109v2.171a.116.116,0,0,1-.109.109h-.347a.116.116,0,0,1-.109-.109Z" transform="translate(-157.489 -134.97)"/><path class="d" d="M207.155,174.045h-.282a.1.1,0,0,1-.109-.109v-.261a.1.1,0,0,1,.109-.109h.282v-.738a1.012,1.012,0,0,1,1.02-1.129,1.17,1.17,0,0,1,.695.239.1.1,0,0,1,.022.13l-.152.282a.1.1,0,0,1-.152.022,1.052,1.052,0,0,0-.391-.152c-.261,0-.456.2-.456.608v.738h.651a.1.1,0,0,1,.109.109v.261a.1.1,0,0,1-.109.109h-.651v1.8a.1.1,0,0,1-.109.109h-.348a.116.116,0,0,1-.109-.109v-1.8Z" transform="translate(-161.873 -134.422)"/><path class="d" d="M217.38,179.9a1.271,1.271,0,1,1-1.216,1.259,1.252,1.252,0,0,1,1.216-1.259m0,2.019a.727.727,0,0,0,.673-.76.676.676,0,1,0-1.346,0,.727.727,0,0,0,.673.76" transform="translate(-169.232 -140.841)"/><path class="d" d="M230.086,180.074a.116.116,0,0,1,.109-.109h.174a.144.144,0,0,1,.109.087l.065.2a.833.833,0,0,1,.695-.347c.239,0,.5.065.434.217l-.152.3a.112.112,0,0,1-.152.065.518.518,0,0,0-.2-.043.634.634,0,0,0-.543.3v1.542c0,.109-.065.109-.174.109h-.282a.116.116,0,0,1-.109-.109v-2.215Z" transform="translate(-180.114 -140.841)"/><path class="d" d="M239.464,180.074a.1.1,0,0,1,.109-.109h.174a.119.119,0,0,1,.109.065l.065.2a1.3,1.3,0,0,1,.847-.326c.738,0,1,.521,1,1.151v1.216a.1.1,0,0,1-.109.109h-.347a.116.116,0,0,1-.109-.109v-1.238c0-.391-.2-.608-.5-.608a.845.845,0,0,0-.673.369v1.476c0,.087-.043.109-.13.109h-.3a.116.116,0,0,1-.109-.109v-2.193Z" transform="translate(-187.473 -140.841)"/><path class="d" d="M253.264,172.747a.347.347,0,1,1,.347.347.343.343,0,0,1-.347-.347m.065,1.455a.116.116,0,0,1,.109-.109h.347a.116.116,0,0,1,.109.109v2.171a.116.116,0,0,1-.109.109h-.347a.116.116,0,0,1-.109-.109Z" transform="translate(-198.277 -134.97)"/><path class="d" d="M261.387,182.167a.116.116,0,0,1-.109.109H261.1c-.043,0-.087-.043-.109-.109l-.043-.174a1.067,1.067,0,0,1-.76.326,1.266,1.266,0,0,1,.022-2.519,1,1,0,0,1,.738.3l.065-.152a.144.144,0,0,1,.109-.087h.174a.116.116,0,0,1,.109.109v2.193Zm-.565-1.455a.623.623,0,0,0-.564-.369.692.692,0,0,0-.673.738.676.676,0,0,0,.651.738.623.623,0,0,0,.565-.369v-.738Z" transform="translate(-202.818 -140.763)"/><path class="d" d="M278.644,171.717a.11.11,0,0,1,.109-.152h.412a.144.144,0,0,1,.109.087l.738,2.757h.022l.977-2.844a.12.12,0,0,1,.109-.065h.109a.12.12,0,0,1,.109.065l1,2.844h.022l.716-2.757a.144.144,0,0,1,.109-.087h.413a.11.11,0,0,1,.109.152l-1.129,4.039a.144.144,0,0,1-.109.087h-.087a.119.119,0,0,1-.109-.065l-1.064-3h-.022l-1.042,3a.119.119,0,0,1-.109.065h-.087a.144.144,0,0,1-.109-.087Z" transform="translate(-218.142 -134.265)"/><path class="d" d="M304.587,182.167a.1.1,0,0,1-.109.109H304.3c-.043,0-.087-.043-.109-.109l-.043-.174a1.067,1.067,0,0,1-.76.326,1.266,1.266,0,0,1,.022-2.519,1,1,0,0,1,.738.3l.065-.152a.144.144,0,0,1,.109-.087h.174a.116.116,0,0,1,.109.109v2.193ZM304,180.712a.623.623,0,0,0-.564-.369.744.744,0,0,0,0,1.477.623.623,0,0,0,.564-.369Z" transform="translate(-236.638 -140.763)"/><path class="d" d="M315.933,177.959h-.261a.1.1,0,0,1-.109-.109v-.261a.1.1,0,0,1,.109-.109h.261v-.673a.1.1,0,0,1,.109-.109h.347a.1.1,0,0,1,.109.109v.673h.608a.1.1,0,0,1,.109.109v.261a.1.1,0,0,1-.109.109H316.5v1.194c0,.2.087.239.2.239a.828.828,0,0,0,.369-.109c.087-.044.109,0,.13.043l.109.261c.022.065,0,.109-.065.152a1.744,1.744,0,0,1-.695.174c-.478,0-.608-.282-.608-.716Z" transform="translate(-247.051 -138.336)"/><path class="d" d="M326.557,179.9a1.085,1.085,0,0,1,1.107,1.107.473.473,0,0,1-.022.174.1.1,0,0,1-.109.109h-1.628a.708.708,0,0,0,.695.651,1.006,1.006,0,0,0,.543-.174c.065-.043.109-.065.174,0l.174.239c.043.043.065.087-.022.152a1.351,1.351,0,0,1-.89.3,1.2,1.2,0,0,1-1.216-1.259,1.218,1.218,0,0,1,1.194-1.3m.543,1a.587.587,0,0,0-.565-.543.6.6,0,0,0-.608.543Z" transform="translate(-254.722 -140.841)"/><path class="d" d="M338.585,180.074a.1.1,0,0,1,.109-.109h.174a.145.145,0,0,1,.109.087l.065.2a.833.833,0,0,1,.695-.347c.239,0,.5.065.434.217l-.152.3a.112.112,0,0,1-.152.065.517.517,0,0,0-.2-.043.633.633,0,0,0-.543.3v1.542c0,.109-.065.109-.174.109h-.282a.116.116,0,0,1-.109-.109v-2.215Z" transform="translate(-265.056 -140.841)"/><path class="d" d="M352.306,175.625l1.845-4.06a.12.12,0,0,1,.109-.065h.065a.148.148,0,0,1,.109.065l1.845,4.06c.043.087-.022.152-.109.152H355.8a.147.147,0,0,1-.13-.087l-.369-.825h-1.976c-.109.282-.239.543-.369.825a.146.146,0,0,1-.13.087h-.369c-.152.022-.2-.065-.152-.152m2.736-1.259-.738-1.65h-.022l-.738,1.65Z" transform="translate(-275.803 -134.265)"/><path class="d" d="M371.776,181.45a.925.925,0,0,1-.2-.586,1.033,1.033,0,0,1,1.042-1.064h1.064a.1.1,0,0,1,.109.109v.152a.119.119,0,0,1-.065.109l-.326.087a.817.817,0,0,1,.261.651.97.97,0,0,1-1.021.977,1.891,1.891,0,0,1-.521-.087.335.335,0,0,0-.239.3.254.254,0,0,0,.283.239h.825c.521,0,.955.282.955.8s-.477,1-1.281,1c-.847,0-1.194-.434-1.194-.825a.691.691,0,0,1,.348-.564v-.022a.63.63,0,0,1-.456-.608.855.855,0,0,1,.413-.673m.847,2.215c.369,0,.695-.2.695-.478,0-.087-.065-.348-.456-.348a4.147,4.147,0,0,0-.521.022c-.043.021-.326.109-.326.369s.239.434.608.434m.521-2.779a.51.51,0,0,0-.5-.564.566.566,0,0,0,0,1.129.51.51,0,0,0,.5-.565" transform="translate(-290.735 -140.763)"/><path class="d" d="M385.579,179.9a1.085,1.085,0,0,1,1.107,1.107.477.477,0,0,1-.022.174.1.1,0,0,1-.109.109h-1.65a.709.709,0,0,0,.695.651,1.007,1.007,0,0,0,.543-.174c.065-.043.109-.065.174,0l.174.239c.043.043.065.087-.022.152a1.351,1.351,0,0,1-.89.3,1.2,1.2,0,0,1-1.216-1.259,1.222,1.222,0,0,1,1.216-1.3m.543,1a.587.587,0,0,0-.565-.543.6.6,0,0,0-.608.543Z" transform="translate(-300.912 -140.841)"/><path class="d" d="M397.664,180.074a.1.1,0,0,1,.109-.109h.174c.043,0,.087.022.087.065l.065.2a1.3,1.3,0,0,1,.847-.326c.738,0,1,.521,1,1.151v1.216a.116.116,0,0,1-.109.109h-.3a.116.116,0,0,1-.109-.109v-1.238c0-.391-.2-.608-.5-.608a.845.845,0,0,0-.673.369v1.476c0,.087-.043.109-.13.109h-.326a.116.116,0,0,1-.109-.109v-2.193Z" transform="translate(-311.326 -140.841)"/><path class="d" d="M412.223,179.9a1.041,1.041,0,0,1,.868.434.134.134,0,0,1-.022.174l-.2.174c-.065.065-.109.022-.174-.022a.64.64,0,0,0-.478-.239.738.738,0,1,0,.564,1.194.093.093,0,0,1,.152-.021l.174.13a.118.118,0,0,1,.043.174,1.077,1.077,0,0,1-.934.5,1.248,1.248,0,1,1,0-2.5" transform="translate(-321.738 -140.841)"/><path class="d" d="M423.563,172.747a.347.347,0,1,1,.348.347.331.331,0,0,1-.348-.347m.065,1.455a.116.116,0,0,1,.109-.109h.348a.116.116,0,0,1,.109.109v2.171a.116.116,0,0,1-.109.109h-.348a.116.116,0,0,1-.109-.109Z" transform="translate(-331.602 -134.97)"/><path class="d" d="M430.457,179.9a1.085,1.085,0,0,1,1.107,1.107.477.477,0,0,1-.022.174.1.1,0,0,1-.109.109h-1.628a.708.708,0,0,0,.695.651,1.007,1.007,0,0,0,.543-.174c.065-.043.109-.065.173,0l.174.239c.043.043.065.087-.021.152a1.352,1.352,0,0,1-.89.3,1.2,1.2,0,0,1-1.216-1.259,1.218,1.218,0,0,1,1.194-1.3m.564,1a.587.587,0,0,0-.564-.543.6.6,0,0,0-.608.543Z" transform="translate(-336.064 -140.841)"/><path class="d" d="M441.834,182.05l.13-.239a.1.1,0,0,1,.152-.021,1.257,1.257,0,0,0,.564.152c.174,0,.3-.065.3-.2,0-.174-.131-.239-.456-.391-.369-.174-.695-.391-.695-.782,0-.3.239-.673.825-.673a1.29,1.29,0,0,1,.716.2.118.118,0,0,1,.043.174l-.109.2a.134.134,0,0,1-.152.043,1.324,1.324,0,0,0-.5-.13c-.2,0-.261.087-.261.174,0,.152.152.217.391.326.434.2.8.369.8.825,0,.369-.348.695-.89.695a1.394,1.394,0,0,1-.8-.239c-.065,0-.087-.043-.065-.109" transform="translate(-345.899 -140.842)"/><path class="d" d="M475.493,27.573A153.552,153.552,0,0,1,489.735,17.5c-3.93-7.078-7.708-12.549-10.443-17.5,0,0-11.355,18.455-13.374,23.817a13.612,13.612,0,0,0-.781,8.467c2.5.608,5.58-1.064,10.356-4.711" transform="translate(-363.861)"/><path class="d" d="M468.164,152.6h0c.022.022.022.022.043.022-.021,0-.021,0-.043-.022" transform="translate(-366.519 -119.468)"/><path class="d" d="M503.767,179.382a14.482,14.482,0,0,1-9.6,4.32,11.254,11.254,0,0,1-1.216,0,14.49,14.49,0,0,1-8.663-2.757c-.022-.022-.043-.022-.065-.043a17,17,0,0,1-2.063-1.8c3.213,1.672,6.47,2,13.982.825a47.544,47.544,0,0,1,7.621-.543" transform="translate(-377.48 -140.215)"/><path class="e" d="M495.606,98.257h0a84.615,84.615,0,0,0-11.789,4.928c-4.429,2.171-7.056,3.5-9.422,4.039-2.28.521-6.079.912-7.23-1.867,2.844,1.694,5.971.261,11.724-3.93A144.647,144.647,0,0,1,493.066,92.2c.326.63.673,1.281,1.02,1.932a20.411,20.411,0,0,1,1.52,4.125" transform="translate(-365.736 -72.182)"/></g></svg>