<?xml version="1.0" encoding="utf-8"?>
<!-- Generator: Adobe Illustrator 22.0.1, SVG Export Plug-In . SVG Version: 6.00 Build 0)  -->
<svg version="1.1" id="Layer_1" xmlns="http://www.w3.org/2000/svg" xmlns:xlink="http://www.w3.org/1999/xlink" x="0px" y="0px"
	 viewBox="0 0 290 71.8" style="enable-background:new 0 0 290 71.8;" xml:space="preserve">
<style type="text/css">
	.st0{fill:#CE1126;}
</style>
<title>rtx_logo</title>
<desc>Created with Sketch.</desc>
<g id="rtx_logo">
	<path id="Fill-1" class="st0" d="M129.3,26.2l-7.2-16.6h6.7l3.6,9.4l3.4-9.4h6.5l-10.9,25.2h-6.2L129.3,26.2z M34.1,18.7
		c0.6,0.1,1.3,0.2,1.9,0.3l3.3-18.9C38.6,0.1,38,0,37.4-0.1L34.1,18.7z M24.2,22.1L9.7,9.8c-0.7,0.7-1.3,1.5-1.9,2.3l14.4,12.3
		C22.8,23.5,23.4,22.7,24.2,22.1L24.2,22.1z M49.4,4.3c-0.5-0.3-1-0.6-1.5-0.9L38.4,20c0.5,0.3,1.1,0.6,1.6,0.9L49.4,4.3z
		 M56.5,10.5L42.1,22.7c0.4,0.4,0.7,0.8,1,1.2l14.4-12.2C57.2,11.3,56.9,10.9,56.5,10.5L56.5,10.5z M20.4,28.6
		c0.3-1.1,0.7-2.2,1.2-3.2L3.9,18.9c-0.4,1-0.8,2.1-1.2,3.2L20.4,28.6z M45.6,31.5c0,7.1-5.7,12.8-12.8,12.8
		c-6.3,0-11.5-4.6-12.6-10.7L2.6,40.2c0.4,1.4,0.9,2.7,1.4,4l17.6-6.5L7.2,49.9c0.9,1.3,1.9,2.5,3,3.6l13.4-11.4l-8.7,15.4
		c1.4,1,2.9,1.8,4.4,2.6l8.2-14.5l-2.9,16.5c1.8,0.5,3.6,0.8,5.4,1l2.7-15.4l2.7,15.4c2-0.2,3.8-0.5,5.7-1l-2.5-14.3l7.2,12.6
		c2-0.9,3.8-2,5.5-3.3l-6.6-11.5l10.1,8.5c1.6-1.6,3-3.4,4.3-5.3l-9-7.6l11,4.1c1-2.1,1.8-4.4,2.3-6.7L53.8,35l10.3,0
		c0.1-1.2,0.2-2.4,0.2-3.6c0-1.4-0.1-2.8-0.3-4.2H44.8C45.3,28.6,45.6,30,45.6,31.5L45.6,31.5z M20.1,31.5c0-0.7,0.1-1.4,0.2-2.1
		H1.4c0,0.7-0.1,1.3-0.1,2c0,0.6,0,1.2,0.1,1.9h18.8C20.1,32.7,20.1,32.1,20.1,31.5L20.1,31.5z M25.4,21c0.7-0.5,1.4-0.9,2.2-1.3
		L18.2,3.2C17.4,3.6,16.7,4,16,4.5L25.4,21z M26.3,0.2C27,0.1,27.6,0,28.3-0.1l3.3,18.9c-0.7,0.1-1.4,0.2-2.1,0.4L26.3,0.2z
		 M196.2,62.6h2.9V37.4h-2.9V62.6z M249.4,38.2c0.4,0.4,0.5,0.9,0.5,1.5c0,0.6-0.2,1.1-0.5,1.5c-0.4,0.4-0.8,0.6-1.4,0.6
		s-1.1-0.2-1.4-0.6c-0.4-0.4-0.5-0.9-0.5-1.5c0-0.6,0.2-1.1,0.5-1.5c0.4-0.4,0.8-0.6,1.4-0.6S249.1,37.8,249.4,38.2L249.4,38.2z
		 M171.7,27.2v-9.5c0-2.1-0.8-3.1-2.3-3.1c-0.9,0-1.5,0.3-1.9,0.9c-0.4,0.6-0.7,1.4-0.7,2.5v9.3h-6.1V1.3h6.1v10.2
		c0.5-0.8,1.2-1.4,2-1.8c0.9-0.4,1.8-0.6,2.9-0.6c2,0,3.5,0.6,4.6,1.9c1,1.2,1.5,3.1,1.5,5.6v10.7H171.7z M188.6,56.8
		c-0.3,0.8-0.7,1.4-1.2,2c-0.5,0.5-1.1,1-1.8,1.3c-0.7,0.3-1.5,0.5-2.4,0.5c-0.9,0-1.7-0.2-2.4-0.5c-0.7-0.3-1.3-0.7-1.8-1.3
		c-0.5-0.5-0.9-1.2-1.2-2c-0.3-0.8-0.4-1.7-0.4-2.6c0-1,0.1-1.8,0.4-2.6c0.3-0.8,0.7-1.4,1.2-2c0.5-0.5,1.1-1,1.8-1.3
		c0.7-0.3,1.5-0.5,2.4-0.5c0.9,0,1.7,0.2,2.4,0.5c0.7,0.3,1.3,0.7,1.8,1.3c0.5,0.5,0.9,1.2,1.2,2c0.3,0.8,0.4,1.7,0.4,2.6
		C189,55.2,188.9,56.1,188.6,56.8L188.6,56.8z M189.4,47.9c-0.8-0.8-1.7-1.4-2.8-1.9c-1.1-0.5-2.2-0.7-3.5-0.7
		c-1.2,0-2.4,0.2-3.5,0.7c-1.1,0.5-2,1.1-2.8,1.9c-0.8,0.8-1.4,1.7-1.8,2.8c-0.4,1.1-0.7,2.3-0.7,3.5c0,1.3,0.2,2.5,0.7,3.5
		c0.4,1.1,1.1,2,1.8,2.8c0.8,0.8,1.7,1.4,2.8,1.9c1.1,0.5,2.2,0.7,3.5,0.7c1.2,0,2.4-0.2,3.5-0.7c1.1-0.5,2-1.1,2.8-1.9
		c0.8-0.8,1.4-1.7,1.8-2.8c0.4-1.1,0.7-2.3,0.7-3.5c0-1.3-0.2-2.5-0.7-3.5C190.8,49.6,190.2,48.7,189.4,47.9L189.4,47.9z
		 M246.6,62.6h2.9V45.8h-2.9V62.6z M237.6,10.9c1,1.2,1.5,3.1,1.5,5.6v10.7h-6.1v-9.5c0-2.1-0.8-3.1-2.3-3.1c-0.9,0-1.5,0.3-1.9,0.9
		c-0.4,0.6-0.7,1.4-0.7,2.5v9.3H222V9.6h6l0.1,2.2c0.5-0.9,1.1-1.5,2-2c0.9-0.5,1.9-0.7,3-0.7C235.1,9.1,236.6,9.7,237.6,10.9
		L237.6,10.9z M185.6,16.8c0.5-2.4,1.7-3.6,3.8-3.6c1,0,1.8,0.3,2.5,0.9c0.6,0.6,1,1.5,1.2,2.6H185.6z M198.1,17.8
		c0-1.4-0.2-2.6-0.6-3.7c-0.4-1.1-1-2-1.7-2.8c-0.7-0.8-1.6-1.3-2.7-1.8c-1.1-0.4-2.2-0.6-3.6-0.6c-1.4,0-2.6,0.2-3.7,0.7
		c-1.1,0.5-2.1,1.1-2.9,1.9c-0.8,0.8-1.4,1.8-1.9,2.9c-0.4,1.1-0.7,2.4-0.7,3.8c0,1.4,0.2,2.7,0.7,3.9c0.5,1.2,1.2,2.1,2.1,2.9
		c0.9,0.8,2,1.4,3.3,1.9c1.3,0.4,2.8,0.6,4.4,0.6c1.4,0,2.7-0.2,3.9-0.5c1.3-0.3,2.3-0.8,3.2-1.4l-1.9-3.9c-0.7,0.3-1.5,0.6-2.4,0.7
		c-0.8,0.2-1.6,0.3-2.3,0.3c-2.8,0-5.2-1-5.8-3h12.3C198.1,19.4,198.1,18.7,198.1,17.8L198.1,17.8z M212.6,21.4
		c-0.7,0.8-1.6,1.2-2.8,1.2s-2.1-0.4-2.8-1.2c-0.7-0.8-1.1-1.8-1.1-3c0-1.2,0.3-2.3,1.1-3c0.7-0.8,1.6-1.2,2.8-1.2s2.1,0.4,2.8,1.2
		c0.7,0.8,1,1.8,1,3C213.7,19.6,213.3,20.6,212.6,21.4L212.6,21.4z M216.7,11.7c-0.9-0.8-1.9-1.5-3-2c-1.2-0.5-2.5-0.7-3.8-0.7
		c-1.4,0-2.7,0.2-3.8,0.7c-1.2,0.5-2.2,1.1-3,2c-0.9,0.8-1.5,1.8-2,3c-0.5,1.1-0.7,2.4-0.7,3.7s0.2,2.6,0.7,3.7c0.5,1.1,1.2,2.1,2,3
		c0.9,0.8,1.9,1.5,3,2c1.2,0.5,2.4,0.7,3.8,0.7c1.4,0,2.7-0.2,3.8-0.7c1.2-0.5,2.2-1.1,3-2c0.9-0.8,1.5-1.8,2-3
		c0.5-1.1,0.7-2.4,0.7-3.7s-0.2-2.6-0.7-3.7C218.2,13.5,217.6,12.5,216.7,11.7L216.7,11.7z M168.6,47.2c1,1.2,1.6,3,1.6,5.4v10h-2.9
		v-9.5c0-1.8-0.3-3.1-0.9-4c-0.6-0.8-1.6-1.3-3-1.3c-1.5,0-2.6,0.5-3.5,1.5c-0.8,1-1.2,2.4-1.2,4.1v9.1h-2.9V45.8h2.7l0,3
		c0.4-0.9,1-1.7,1.7-2.3c1-0.8,2.3-1.2,3.8-1.2C166.1,45.3,167.6,45.9,168.6,47.2L168.6,47.2z M217.3,56.8c-0.3,0.8-0.7,1.4-1.2,2
		c-0.5,0.5-1.1,1-1.8,1.3c-0.7,0.3-1.5,0.5-2.4,0.5c-0.9,0-1.7-0.2-2.4-0.5c-0.7-0.3-1.3-0.7-1.8-1.3c-0.5-0.5-0.9-1.2-1.2-2
		c-0.3-0.8-0.4-1.7-0.4-2.6c0-1,0.1-1.8,0.4-2.6c0.3-0.8,0.7-1.4,1.2-2c0.5-0.5,1.1-1,1.8-1.3c0.7-0.3,1.5-0.5,2.4-0.5
		c0.9,0,1.7,0.2,2.4,0.5c0.7,0.3,1.3,0.7,1.8,1.3c0.5,0.5,0.9,1.2,1.2,2c0.3,0.8,0.4,1.7,0.4,2.6C217.7,55.2,217.6,56.1,217.3,56.8
		L217.3,56.8z M218.2,47.9c-0.8-0.8-1.7-1.4-2.8-1.9c-1.1-0.5-2.2-0.7-3.5-0.7c-1.2,0-2.4,0.2-3.5,0.7c-1.1,0.5-2,1.1-2.8,1.9
		c-0.8,0.8-1.4,1.7-1.8,2.8c-0.4,1.1-0.7,2.3-0.7,3.5c0,1.3,0.2,2.5,0.7,3.5c0.4,1.1,1.1,2,1.8,2.8c0.8,0.8,1.7,1.4,2.8,1.9
		c1.1,0.5,2.2,0.7,3.5,0.7c1.2,0,2.4-0.2,3.5-0.7c1.1-0.5,2-1.1,2.8-1.9c0.8-0.8,1.4-1.7,1.8-2.8c0.4-1.1,0.7-2.3,0.7-3.5
		c0-1.3-0.2-2.5-0.7-3.5C219.6,49.6,219,48.7,218.2,47.9L218.2,47.9z M113.8,21.2c-0.7,0.7-1.5,1.1-2.5,1.1s-1.9-0.4-2.6-1.1
		c-0.7-0.7-1-1.7-1-2.8c0-1.2,0.3-2.1,1-2.8c0.7-0.7,1.5-1.1,2.6-1.1s1.9,0.4,2.5,1.1c0.7,0.7,1,1.7,1,2.8
		C114.7,19.5,114.4,20.5,113.8,21.2L113.8,21.2z M120.5,9.6h-5.7l-0.1,2c-0.5-0.8-1.2-1.5-2.1-1.9c-0.9-0.5-1.8-0.7-2.9-0.7
		c-1.2,0-2.2,0.2-3.2,0.7c-1,0.5-1.9,1.1-2.6,2c-0.7,0.8-1.3,1.8-1.7,3c-0.4,1.1-0.6,2.4-0.6,3.7c0,1.4,0.2,2.6,0.6,3.7
		c0.4,1.1,0.9,2.1,1.6,2.9c0.7,0.8,1.5,1.5,2.5,1.9c1,0.5,2,0.7,3.2,0.7c1.1,0,2.1-0.2,3-0.7s1.6-1.1,2.1-1.9l0.1,2h5.7V9.6z
		 M285.6,58.1c0,1.6-0.6,2.8-1.8,3.7c-1.2,0.9-2.9,1.4-5,1.4c-1.1,0-2.2-0.2-3.2-0.5c-1.1-0.3-1.9-0.7-2.5-1.2l1.2-2.1
		c1.5,0.9,3,1.3,4.6,1.3c1.2,0,2.2-0.2,2.9-0.6c0.7-0.4,1-1,1-1.8c0-0.4,0-0.7-0.2-1c-0.1-0.3-0.3-0.5-0.6-0.7
		c-0.3-0.2-0.7-0.4-1.2-0.6c-0.5-0.2-1.2-0.4-2-0.7c-1.8-0.5-3.1-1.2-3.9-2c-0.8-0.8-1.2-1.8-1.2-3.1c0-1.5,0.6-2.6,1.7-3.5
		c1.1-0.9,2.6-1.3,4.5-1.3c0.9,0,1.8,0.1,2.7,0.4c1,0.3,1.8,0.6,2.4,1l-1.1,2.1c-1.4-0.7-2.8-1.1-4.1-1.1c-2.3,0-3.4,0.7-3.4,2.1
		c0,0.7,0.3,1.3,0.8,1.7c0.5,0.4,1.4,0.8,2.7,1.2c1.1,0.3,2,0.6,2.7,1c0.7,0.3,1.3,0.7,1.8,1.1c0.5,0.4,0.8,0.9,1,1.4
		C285.5,56.8,285.6,57.4,285.6,58.1L285.6,58.1z M99.5,40h-8.8v22.5h-3V40h-8.8v-2.6h20.7V40z M86.2,6.5h1.9c2.9,0,4.4,1.2,4.4,3.5
		c0,2.4-1.5,3.6-4.5,3.6h-1.9V6.5z M89.5,18.8l4.5,8.4h7.5l-6.4-10.2c1.2-0.7,2.2-1.7,2.9-2.9c0.7-1.2,1-2.5,1-4
		c0-1.4-0.2-2.6-0.7-3.7c-0.5-1.1-1.1-2-2-2.8c-0.9-0.8-1.9-1.3-3.2-1.7c-1.2-0.4-2.7-0.6-4.2-0.6h-9.3v25.9h6.5v-8.3H88L89.5,18.8z
		 M105.8,47.8c0.9,0,1.7,0.2,2.3,0.5c0.6,0.3,1.1,0.8,1.5,1.3c0.4,0.5,0.7,1.1,0.8,1.8c0.1,0.5,0.2,1.1,0.2,1.6h-10.2
		c0.2-1.4,0.6-2.6,1.4-3.5C102.9,48.4,104.2,47.8,105.8,47.8L105.8,47.8z M111.4,47.6c-0.7-0.7-1.5-1.3-2.4-1.7
		c-0.9-0.4-1.9-0.6-3-0.6c-1.2,0-2.3,0.2-3.4,0.7c-1,0.4-1.9,1.1-2.6,1.9c-0.7,0.8-1.3,1.8-1.7,2.9c-0.4,1.1-0.6,2.4-0.6,3.7
		c0,2.7,0.8,4.9,2.4,6.4c1.6,1.5,3.9,2.3,6.8,2.3c1.2,0,2.4-0.1,3.5-0.4c1.1-0.3,2.1-0.6,2.8-1.1l-1.1-2.1c-1.7,0.7-3.4,1.1-5.1,1.1
		c-2.1,0-3.8-0.5-4.9-1.5c-0.9-0.9-1.5-2.1-1.6-3.7h12.9c0-0.2,0-0.4,0.1-0.6c0-0.2,0-0.5,0-1c0-1.3-0.2-2.4-0.5-3.4
		C112.6,49.2,112.1,48.4,111.4,47.6L111.4,47.6z M261.8,47.8c2.9,0,4.5,1.5,4.9,4.4c0,0.2,0.1,0.4,0.1,0.6c0,0,0,0,0,0.1h-10.1
		c0.2-1.3,0.6-2.4,1.3-3.3C258.9,48.4,260.2,47.8,261.8,47.8L261.8,47.8z M267.4,47.6c-0.7-0.7-1.5-1.3-2.4-1.7
		c-0.9-0.4-2-0.6-3.1-0.6c-1.2,0-2.3,0.2-3.3,0.7c-1,0.4-1.9,1.1-2.6,1.9c-0.7,0.8-1.3,1.8-1.7,2.9c-0.4,1.1-0.6,2.3-0.6,3.6
		c0,2.8,0.8,5,2.4,6.5c1.6,1.5,3.8,2.3,6.7,2.3c1.2,0,2.4-0.1,3.6-0.4c1.1-0.3,2.1-0.7,3-1.2l-1-2.2c-1.8,0.8-3.6,1.3-5.4,1.3
		c-3.9,0-6-1.8-6.4-5.4h12.8c0-0.2,0-0.4,0.1-0.6c0-0.2,0-0.5,0-1c0-1.2-0.2-2.4-0.5-3.4C268.6,49.2,268.1,48.3,267.4,47.6
		L267.4,47.6z M130.7,59.7l1.1,2.1c-0.7,0.4-1.6,0.7-2.5,1c-0.9,0.2-1.9,0.3-2.8,0.3c-1.4,0-2.7-0.2-3.8-0.6c-1.1-0.4-2.1-1-2.9-1.8
		c-0.8-0.8-1.4-1.7-1.8-2.8c-0.4-1.1-0.6-2.3-0.6-3.6c0-1.3,0.2-2.6,0.7-3.7c0.4-1.1,1.1-2,1.8-2.8c0.8-0.8,1.7-1.4,2.9-1.9
		c1.1-0.4,2.3-0.7,3.7-0.7c1.8,0,3.5,0.5,5.1,1.4l-1.1,2.1c-0.6-0.3-1.2-0.5-1.9-0.7c-0.7-0.1-1.3-0.2-2-0.2c-1.9,0-3.4,0.6-4.6,1.7
		c-1.1,1.1-1.7,2.7-1.7,4.6c0,2,0.6,3.6,1.7,4.7c1.1,1.1,2.7,1.7,4.7,1.7C127.9,60.6,129.3,60.3,130.7,59.7L130.7,59.7z M148.8,47.2
		c1.1,1.3,1.6,3.1,1.6,5.4v10h-2.9v-9.5c0-1.8-0.3-3.1-0.9-4c-0.6-0.8-1.6-1.3-3-1.3c-1.5,0-2.6,0.5-3.5,1.5c-0.8,1-1.2,2.4-1.2,4.1
		v9.1h-2.9V37.4h2.9v11.2c0.4-0.9,1-1.6,1.7-2.1c1-0.7,2.2-1.1,3.7-1.1C146.2,45.3,147.7,45.9,148.8,47.2L148.8,47.2z M156,27.5
		c-0.9,0.2-1.8,0.2-2.8,0.2c-4.4,0-6.6-2.3-6.6-6.9v-6.3h-2.9V9.6h2.9V5.1h6.1v4.5h5.7l-1.5,4.9h-4.2v5.2c0,1.1,0.2,1.8,0.5,2.2
		c0.3,0.4,0.9,0.6,1.7,0.6c0.9,0,1.8-0.2,2.7-0.5l0.6,4.7C157.7,27.1,156.9,27.3,156,27.5L156,27.5z M236.9,58.8
		c-0.5,0.6-1.1,1-1.8,1.3c-0.7,0.3-1.5,0.5-2.3,0.5c-1.8,0-3.2-0.6-4.2-1.7c-1-1.1-1.5-2.7-1.5-4.6c0-0.9,0.1-1.8,0.4-2.6
		c0.3-0.8,0.7-1.5,1.2-2c0.5-0.6,1.1-1,1.8-1.3c0.7-0.3,1.5-0.5,2.3-0.5c0.9,0,1.6,0.2,2.4,0.5c0.7,0.3,1.3,0.7,1.8,1.3
		c0.5,0.6,0.9,1.2,1.2,2c0.3,0.8,0.4,1.7,0.4,2.6c0,0.9-0.1,1.7-0.4,2.5C237.8,57.6,237.4,58.2,236.9,58.8L236.9,58.8z M238.4,48.8
		c-0.5-0.9-1.2-1.7-2-2.3c-1.1-0.8-2.4-1.2-3.9-1.2c-1.2,0-2.3,0.2-3.3,0.7c-1,0.5-1.9,1.1-2.6,1.9c-0.7,0.8-1.3,1.8-1.7,2.8
		c-0.4,1.1-0.6,2.3-0.6,3.5c0,1.3,0.2,2.5,0.6,3.6c0.4,1.1,0.9,2,1.6,2.8c0.7,0.8,1.5,1.4,2.5,1.8c1,0.4,2,0.6,3.2,0.6
		c1.6,0,2.9-0.4,4.1-1.2c0.9-0.6,1.6-1.4,2.2-2.3v2c0,2.4-0.5,4.2-1.5,5.3c-1,1.1-2.6,1.7-4.7,1.7c-2.4,0-4.3-0.4-5.7-1.3l-0.7,2.3
		c0.3,0.2,0.7,0.4,1.2,0.6c0.5,0.2,1,0.3,1.6,0.5c0.6,0.1,1.2,0.2,1.8,0.3c0.6,0.1,1.3,0.1,1.9,0.1c6,0,9-3.3,9-9.9V45.8h-2.8
		L238.4,48.8z"/>
</g>
</svg>
