<svg xmlns="http://www.w3.org/2000/svg" xmlns:xlink="http://www.w3.org/1999/xlink" width="48" height="47.904" viewBox="0 0 48 47.904"><defs><style>.a{fill:none;}.b{fill:#fff;}.c{clip-path:url(#a);}.d{fill:#fdb813;}.e{fill:#1689c5;}</style><clipPath id="a"><rect class="a" width="48" height="47.904"/></clipPath></defs><rect class="b" width="41.98" height="47.904"/><g class="c"><path class="d" d="M69.864,100.616a2.66,2.66,0,0,0-1.217,1.313,4.72,4.72,0,0,0,.736,4.131l-.9.9-1.025,1.5a4.561,4.561,0,0,0,.672,4.195,3.287,3.287,0,0,0,3.2,1.441h4c.608.064.865-.128.736-.608V106.22H73.8v1.825l-2.562-3.619-.384-1.121q0-.961.865-.864l.32.1a.773.773,0,0,1,.416.608v1.025H75.02v-.865a4.043,4.043,0,0,0-.416-1.825l-.352-.448a3.438,3.438,0,0,0-2.209-.833l-1.313.1Z" transform="translate(-45.688 -68.115)"/><path class="b" d="M77.931,128.511H79.34l.032-.16-3.106-3.65a1.785,1.785,0,0,0-.609,1.152,2.591,2.591,0,0,0,.385,2.05l.512.352Z" transform="translate(-51.386 -84.77)"/><path class="e" d="M105.681,42.809H102v4.035h3.682v2.946h1.025V5.6H97.9V49.917h.512V33.074h7.269v2.978H102v3.779h3.682Z" transform="translate(-66.551 -3.807)"/><path class="e" d="M21.133,101.879c-.224-.993-.8-1.409-1.633-1.249v4.9q1.441.24,1.633-1.537Z" transform="translate(-13.256 -68.384)"/><path class="e" d="M18.248,32.915l1.793-.256a3.73,3.73,0,0,1,3.01,1.473l.512.8a7.7,7.7,0,0,1,.256,3.138l-3.234-.032v-1.6a.724.724,0,0,0-.8-.736c-.48.032-.736.353-.736.961v9.575l.1.448a.761.761,0,0,0,.608.513c.64.224.993-.064.993-.8V43.578h-.9V40.632h4.1V44.6l10.983-39H5.6V49.95H6.657V33.011h3.458l1.793.192a3.926,3.926,0,0,1,2.69,2.113,9.5,9.5,0,0,1,.544,2.754c.128,1.793-.032,2.946-.416,3.426a3.44,3.44,0,0,1-3.586,2.369l-1.153-.032v5.988H18.12c-1.633-.353-2.434-1.6-2.434-3.619V36.5a2.976,2.976,0,0,1,2.562-3.586" transform="translate(-3.807 -3.807)"/><path class="e" d="M136.393,5.391c1.729,0,2.562-.865,2.562-2.626,0-1.665-.833-2.466-2.562-2.466-1.761,0-2.594.8-2.594,2.466,0,1.761.833,2.626,2.594,2.626m2.081-2.626c0,1.537-.673,2.241-2.081,2.241-1.441,0-2.145-.7-2.145-2.241A1.9,1.9,0,0,1,136.393.62a1.869,1.869,0,0,1,2.081,2.145" transform="translate(-90.955 -0.204)"/><path class="e" d="M140.977,4.265c0-.576-.384-.865-1.056-.865H138.8V6.442h.448V5.129h.512l.833,1.313h.48L140.209,5.1a.754.754,0,0,0,.768-.833m-1.088-.48c.448,0,.64.16.64.448,0,.352-.288.512-.8.512h-.48V3.784Z" transform="translate(-94.354 -2.311)"/></g></svg>