<svg xmlns="http://www.w3.org/2000/svg" xmlns:xlink="http://www.w3.org/1999/xlink" width="140.822" height="48.768" viewBox="0 0 140.822 48.768"><defs><style>.a{fill:none;}.b{clip-path:url(#a);}.c{fill:#645faa;}.d{fill:#c9234a;}.e{fill:#0089cf;}.f{fill:#f36f21;}.g{fill:#0db14b;}.h{fill:#fdb913;}</style><clipPath id="a"><rect class="a" width="140.822" height="48.768"/></clipPath></defs><g class="b"><path class="c" d="M510.979,2.234A4.222,4.222,0,0,1,510.612,6l-4.7,10.582-.041.05L504.168,5.9c-.136-1.031.965-1.471,1.613-1.966-.033-.151-.2-.144-.3-.215L503.887,3.7l-.048-.048a3.642,3.642,0,0,1,1.942-3.21,3.776,3.776,0,0,1,4.16.407,3.9,3.9,0,0,1,1.038,1.382" transform="translate(-432.906 0)"/><path class="d" d="M450.579,2.079a3.8,3.8,0,0,1,.471,2.413l-1.918,12.291c.01.015-.007.032-.023.039l-.5-.989L443.807,5.1A3.727,3.727,0,0,1,448.791.53a3.994,3.994,0,0,1,1.789,1.549" transform="translate(-381.171 -0.213)"/><path class="e" d="M530.713,37.791a3.778,3.778,0,0,1-.218,3.8,6.267,6.267,0,0,1-1.8,1.549l-9.96,6.837h-.023l.111-.327,5.28-11.917a3.805,3.805,0,0,1,3.9-1.9,3.852,3.852,0,0,1,2.716,1.965" transform="translate(-445.681 -30.75)"/><path class="f" d="M400.477,37.83l5.494,12.243h-.088l-11.077-7.634a3.653,3.653,0,0,1-1.207-3.81,3.737,3.737,0,0,1,6.878-.8" transform="translate(-338.073 -30.852)"/><path class="g" d="M530.976,97.77a3.778,3.778,0,0,1-.455,3.755,3.731,3.731,0,0,1-3.06,1.436l-11.811.008,9.894-6.884a3.821,3.821,0,0,1,3.491-.231,3.875,3.875,0,0,1,1.94,1.917" transform="translate(-443.054 -82.086)"/><path class="h" d="M374.212,97.77a3.779,3.779,0,0,0,.456,3.755,3.726,3.726,0,0,0,3.059,1.436l11.811.008-9.894-6.884a3.818,3.818,0,0,0-3.489-.231,3.883,3.883,0,0,0-1.942,1.917" transform="translate(-321.265 -82.086)"/><path d="M161.945,198.545a10.407,10.407,0,1,0,10.406,10.406,10.414,10.414,0,0,0-10.406-10.406m0,18.764a8.357,8.357,0,1,1,8.359-8.357,8.369,8.369,0,0,1-8.359,8.357" transform="translate(-130.207 -170.593)"/><path d="M805.123,209.092c-.558-.293-3.954-2.041-4.442-2.295-1.781-.911-2.413-1.715-2.413-3.078,0-1.894,1.555-3.117,3.966-3.117a7.733,7.733,0,0,1,3.587,1.074,1.045,1.045,0,0,0,.5.125,1.023,1.023,0,0,0,.51-1.909,9.849,9.849,0,0,0-4.6-1.337c-3.543,0-6.015,2.122-6.015,5.164,0,2.73,1.795,4.018,3.551,4.915.492.251,3.927,2.021,4.442,2.293a3.435,3.435,0,0,1,2.107,3c0,1.643-1.393,3.39-3.969,3.39a7.7,7.7,0,0,1-4.99-2.2l-.161-.153-1.514,1.381.177.177a9.725,9.725,0,0,0,6.488,2.842,5.678,5.678,0,0,0,6.014-5.439,5.488,5.488,0,0,0-3.24-4.837" transform="translate(-683.664 -170.601)"/><path d="M10.4,200.595a8.31,8.31,0,0,1,5.91,2.445,1.078,1.078,0,0,0,1.45,0,1.022,1.022,0,0,0,0-1.444l-.126-.129a10.413,10.413,0,1,0,.425,14.522l-1.448-1.45a8.356,8.356,0,1,1-6.21-13.944" transform="translate(0 -170.593)"/><path d="M511.431,200.595a8.315,8.315,0,0,1,5.91,2.445,1.076,1.076,0,0,0,1.448,0,1.011,1.011,0,0,0,0-1.444l-.125-.129a10.413,10.413,0,1,0,.426,14.521l-1.45-1.45a8.357,8.357,0,1,1-6.21-13.944" transform="translate(-430.488 -170.593)"/><path d="M337.726,198.545a.975.975,0,0,0-.853.567c-.168.32-6.123,15.05-6.125,15.05s-5.955-14.73-6.122-15.05a.978.978,0,0,0-.854-.567.963.963,0,0,0-.9.746c-.119.419-3.479,18.957-3.479,18.957a.954.954,0,0,0-.018.188.923.923,0,0,0,1.829.177l2.91-15.862s5.614,13.87,5.778,14.2a.924.924,0,0,0,1.72,0c.165-.33,5.779-14.2,5.779-14.2l3.024,16.493h1.879s-3.54-19.535-3.659-19.954a.967.967,0,0,0-.907-.746" transform="translate(-274.409 -170.593)"/><path d="M659.817,198.555a.979.979,0,0,0-.86.582c-.168.329-7.706,18.947-7.706,18.947a.942.942,0,0,0-.071.36.922.922,0,0,0,1.781.338l2.926-7.2h7.859l3.122,7.67h1.994s-8.023-19.788-8.188-20.116a.969.969,0,0,0-.859-.582m-3.094,10.979,3.094-7.609,3.1,7.609Z" transform="translate(-559.503 -170.601)"/><path d="M916.02,199.333H904.434a1.024,1.024,0,0,0,0,2.047h4.856v18.54h1.876V201.38h4.853a1.024,1.024,0,1,0,0-2.047" transform="translate(-776.224 -171.27)"/></g></svg>